<svg width="31" height="24" fill="none" xmlns="http://www.w3.org/2000/svg"><path d="M19.892 0a15.54 15.54 0 0 0-.82 1.7c-2.348-.37-4.74-.37-7.087 0a15.676 15.676 0 0 0-.82-1.7 24.78 24.78 0 0 0-6.39 2.009A26.757 26.757 0 0 0 .131 19.92a25.698 25.698 0 0 0 7.845 4.003 19.91 19.91 0 0 0 1.718-2.69 14.848 14.848 0 0 1-2.646-1.282c.23-.153.447-.323.65-.51a18.06 18.06 0 0 0 15.659 0c.216.186.433.356.65.51a16.76 16.76 0 0 1-2.646 1.298A19.174 19.174 0 0 0 23.032 24a25.45 25.45 0 0 0 7.83-4.003c.648-6.332-1-12.687-4.642-17.91A24.918 24.918 0 0 0 19.892 0Zm-9.5 16.304a3.003 3.003 0 0 1-2.786-3.09 2.98 2.98 0 0 1 2.785-3.092 2.988 2.988 0 0 1 2.785 3.091 2.98 2.98 0 0 1-2.785 3.09Zm10.273 0a3.003 3.003 0 0 1-2.785-3.09 2.98 2.98 0 0 1 2.785-3.092 2.972 2.972 0 0 1 2.786 3.091 2.965 2.965 0 0 1-2.786 3.09Z" fill="#fff"/></svg>