<svg width="27" height="24" fill="none" xmlns="http://www.w3.org/2000/svg"><path d="m26.719 4.713-3.732 3.762C22.246 17.212 14.956 24 6.244 24c-1.791 0-3.274-.288-4.399-.85-.902-.462-1.272-.95-1.371-1.1a1.007 1.007 0 0 1 .482-1.488c.024-.012 2.94-1.137 4.831-3.3a13.494 13.494 0 0 1-3.052-3.05C1.042 11.889-.75 7.85.325 1.825a1.017 1.017 0 0 1 .68-.775.978.978 0 0 1 1.001.238c.037.05 4.152 4.15 9.18 5.475V6a6.1 6.1 0 0 1 .47-2.308 6.04 6.04 0 0 1 1.305-1.95A5.963 5.963 0 0 1 14.905.445 5.909 5.909 0 0 1 17.192 0a5.904 5.904 0 0 1 2.924.825A5.99 5.99 0 0 1 22.258 3h3.757a.98.98 0 0 1 .549.166c.162.11.29.265.365.447a1.061 1.061 0 0 1-.21 1.1Z" fill="#fff"/></svg>